<mxfile host="app.diagrams.net" agent="Mozilla/5.0 (Windows NT 10.0; Win64; x64) AppleWebKit/537.36 (KHTML, like Gecko) Chrome/129.0.0.0 Safari/537.36" version="24.7.17">
  <diagram name="Page-1" id="iTqFnaxofwgeYauZ2hoi">
    <mxGraphModel dx="1728" dy="620" grid="1" gridSize="10" guides="1" tooltips="1" connect="1" arrows="1" fold="1" page="1" pageScale="1" pageWidth="850" pageHeight="1100" math="0" shadow="0">
      <root>
        <mxCell id="0" />
        <mxCell id="1" parent="0" />
        <mxCell id="qTVW7W6KAPb0HDqyhsuf-1" value="Criando Carteira" style="html=1;verticalAlign=bottom;startArrow=oval;startFill=1;endArrow=block;startSize=8;curved=0;rounded=0;" edge="1" parent="1">
          <mxGeometry width="60" relative="1" as="geometry">
            <mxPoint x="70" y="219.76" as="sourcePoint" />
            <mxPoint x="200" y="219.76" as="targetPoint" />
          </mxGeometry>
        </mxCell>
        <mxCell id="qTVW7W6KAPb0HDqyhsuf-13" value="&lt;font style=&quot;font-size: 9px;&quot;&gt;atualizaSaldo()&lt;/font&gt;" style="edgeStyle=orthogonalEdgeStyle;rounded=0;orthogonalLoop=1;jettySize=auto;html=1;entryX=0.5;entryY=0;entryDx=0;entryDy=0;" edge="1" parent="1" source="qTVW7W6KAPb0HDqyhsuf-10" target="qTVW7W6KAPb0HDqyhsuf-15">
          <mxGeometry y="35" relative="1" as="geometry">
            <mxPoint x="420" y="220" as="targetPoint" />
            <mxPoint as="offset" />
          </mxGeometry>
        </mxCell>
        <mxCell id="qTVW7W6KAPb0HDqyhsuf-10" value="Inicializando" style="html=1;whiteSpace=wrap;" vertex="1" parent="1">
          <mxGeometry x="200" y="200" width="110" height="40" as="geometry" />
        </mxCell>
        <mxCell id="qTVW7W6KAPb0HDqyhsuf-29" value="&lt;font style=&quot;font-size: 9px;&quot;&gt;visualizar()&lt;/font&gt;" style="edgeStyle=orthogonalEdgeStyle;rounded=0;orthogonalLoop=1;jettySize=auto;html=1;" edge="1" parent="1" source="qTVW7W6KAPb0HDqyhsuf-15">
          <mxGeometry x="-0.2693" y="-10" relative="1" as="geometry">
            <mxPoint x="140" y="370" as="targetPoint" />
            <mxPoint as="offset" />
          </mxGeometry>
        </mxCell>
        <mxCell id="qTVW7W6KAPb0HDqyhsuf-30" value="&lt;font style=&quot;font-size: 9px;&quot;&gt;açõesCompradas()&lt;/font&gt;" style="edgeStyle=orthogonalEdgeStyle;rounded=0;orthogonalLoop=1;jettySize=auto;html=1;" edge="1" parent="1" source="qTVW7W6KAPb0HDqyhsuf-15">
          <mxGeometry x="-0.0952" y="10" relative="1" as="geometry">
            <mxPoint x="370" y="370" as="targetPoint" />
            <mxPoint as="offset" />
          </mxGeometry>
        </mxCell>
        <mxCell id="qTVW7W6KAPb0HDqyhsuf-32" style="edgeStyle=orthogonalEdgeStyle;rounded=0;orthogonalLoop=1;jettySize=auto;html=1;entryX=0.48;entryY=-0.027;entryDx=0;entryDy=0;entryPerimeter=0;" edge="1" parent="1" source="qTVW7W6KAPb0HDqyhsuf-15" target="qTVW7W6KAPb0HDqyhsuf-37">
          <mxGeometry relative="1" as="geometry">
            <mxPoint x="255" y="435" as="targetPoint" />
          </mxGeometry>
        </mxCell>
        <mxCell id="qTVW7W6KAPb0HDqyhsuf-15" value="Ativa" style="html=1;whiteSpace=wrap;" vertex="1" parent="1">
          <mxGeometry x="200" y="300" width="110" height="40" as="geometry" />
        </mxCell>
        <mxCell id="qTVW7W6KAPb0HDqyhsuf-27" value="&lt;div&gt;&lt;font style=&quot;font-size: 9px;&quot;&gt;retorno&lt;/font&gt;&lt;/div&gt;" style="edgeStyle=orthogonalEdgeStyle;rounded=0;orthogonalLoop=1;jettySize=auto;html=1;entryX=0.28;entryY=1.04;entryDx=0;entryDy=0;entryPerimeter=0;" edge="1" parent="1" source="qTVW7W6KAPb0HDqyhsuf-24" target="qTVW7W6KAPb0HDqyhsuf-15">
          <mxGeometry x="0.5874" y="21" relative="1" as="geometry">
            <mxPoint x="230" y="343" as="targetPoint" />
            <Array as="points">
              <mxPoint x="231" y="400" />
            </Array>
            <mxPoint as="offset" />
          </mxGeometry>
        </mxCell>
        <mxCell id="qTVW7W6KAPb0HDqyhsuf-24" value="Visualizando" style="html=1;whiteSpace=wrap;" vertex="1" parent="1">
          <mxGeometry x="90" y="380" width="110" height="40" as="geometry" />
        </mxCell>
        <mxCell id="qTVW7W6KAPb0HDqyhsuf-25" value="Operando" style="html=1;whiteSpace=wrap;" vertex="1" parent="1">
          <mxGeometry x="310" y="380" width="110" height="40" as="geometry" />
        </mxCell>
        <mxCell id="qTVW7W6KAPb0HDqyhsuf-31" value="&lt;font style=&quot;font-size: 9px;&quot;&gt;finaliza operação&lt;/font&gt;" style="edgeStyle=orthogonalEdgeStyle;rounded=0;orthogonalLoop=1;jettySize=auto;html=1;" edge="1" parent="1" source="qTVW7W6KAPb0HDqyhsuf-25">
          <mxGeometry x="0.5556" y="-40" relative="1" as="geometry">
            <mxPoint x="280" y="340" as="targetPoint" />
            <Array as="points">
              <mxPoint x="280" y="400" />
              <mxPoint x="280" y="340" />
            </Array>
            <mxPoint as="offset" />
          </mxGeometry>
        </mxCell>
        <mxCell id="qTVW7W6KAPb0HDqyhsuf-37" value="" style="verticalLabelPosition=bottom;verticalAlign=top;html=1;shape=mxgraph.basic.donut;dx=5.2;" vertex="1" parent="1">
          <mxGeometry x="240" y="440" width="30" height="30" as="geometry" />
        </mxCell>
      </root>
    </mxGraphModel>
  </diagram>
</mxfile>
